<?xml version="1.0" encoding="UTF-8"?>
<svg width="237px" height="200px" viewBox="0 0 237 200" version="1.1" xmlns="http://www.w3.org/2000/svg" xmlns:xlink="http://www.w3.org/1999/xlink">
    <!-- Generator: sketchtool 53.1 (72631) - https://sketchapp.com -->
    <title>F79E0A23-DD73-4EEC-AC17-9A103666186D</title>
    <desc>Created with sketchtool.</desc>
    <g id="Agenda-v4-Easy" stroke="none" stroke-width="1" fill="none" fill-rule="evenodd">
        <g id="Agenda-vazia" transform="translate(-602.000000, -160.000000)">
            <g id="Group" transform="translate(601.000000, 160.000000)">
                <g id="ic_book" transform="translate(1.000000, 0.000000)">
                    <g transform="translate(0.000000, 0.000000)" id="Path">
                        <path d="M224.741379,183.673469 L134.844828,183.673469 C128.102586,183.673469 118.5,190.816327 118.5,200 L118.5,12.244898 C118.5,5.51020408 124.016379,0 130.758621,0 L224.741379,0 C231.483621,0 237,5.51020408 237,12.244898 L237,171.428571 C237,178.163265 231.483621,183.673469 224.741379,183.673469 Z" fill="#9198AF" fill-rule="nonzero"></path>
                        <path d="M12.2586207,183.673469 L102.155172,183.673469 C108.897414,183.673469 118.5,190.816327 118.5,200 L118.5,12.244898 C118.5,5.51020408 112.983621,0 106.241379,0 L12.2586207,0 C5.51637931,0 0,5.51020408 0,12.244898 L0,171.428571 C0,178.163265 5.51637931,183.673469 12.2586207,183.673469 Z" fill="#C0C3D2" fill-rule="nonzero"></path>
                    </g>
                </g>
            </g>
        </g>
    </g>
</svg>