<?xml version="1.0" encoding="UTF-8"?>
<svg width="16px" height="16px" viewBox="0 0 16 16" version="1.1" xmlns="http://www.w3.org/2000/svg" xmlns:xlink="http://www.w3.org/1999/xlink">
    <!-- Generator: sketchtool 53.1 (72631) - https://sketchapp.com -->
    <title>92945705-9920-4E34-AE42-C0E18CF910B2</title>
    <desc>Created with sketchtool.</desc>
    <g id="Symbols" stroke="none" stroke-width="1" fill="none" fill-rule="evenodd">
        <g id="gray/ic_delete" fill="#9198AF" fill-rule="nonzero">
            <g id="trash" transform="translate(1.000000, 0.000000)">
                <path d="M12.8813559,1.62711864 L9.07281356,1.62711864 C9.04298305,1.28813559 8.93857627,0.716474576 8.58115254,0.349559322 C8.35498305,0.117694915 8.0680678,0 7.72854237,0 L5.01694915,0 C4.67742373,0 4.39050847,0.117694915 4.16433898,0.349559322 C3.80691525,0.716474576 3.70250847,1.28813559 3.67267797,1.62711864 L0.406779661,1.62711864 C0.257084746,1.62711864 0.13559322,1.74833898 0.13559322,1.89830508 C0.13559322,2.04827119 0.257084746,2.16949153 0.406779661,2.16949153 L12.8813559,2.16949153 C13.0310508,2.16949153 13.1525424,2.04827119 13.1525424,1.89830508 C13.1525424,1.74833898 13.0310508,1.62711864 12.8813559,1.62711864 Z M4.21776271,1.62711864 C4.24813559,1.34291525 4.33572881,0.950237288 4.5540339,0.727050847 C4.67525424,0.602847458 4.82684746,0.542372881 5.01694915,0.542372881 L7.72854237,0.542372881 C7.91864407,0.542372881 8.07023729,0.602847458 8.19172881,0.727050847 C8.4100339,0.950237288 8.49762712,1.34291525 8.528,1.62711864 L4.21776271,1.62711864 Z" id="Shape"></path>
                <path d="M1.47959322,14.6497627 C1.48962712,15.1167458 1.78033898,16 2.81057627,16 L10.4775593,16 C11.5077966,16 11.7985085,15.1167458 11.8082712,14.6554576 L12.3053559,2.71186441 L0.982779661,2.71186441 L1.47959322,14.6497627 Z M3.38983051,11.3898305 L9.89830508,11.3898305 C10.048,11.3898305 10.1694915,11.5110508 10.1694915,11.6610169 C10.1694915,11.8109831 10.048,11.9322034 9.89830508,11.9322034 L3.38983051,11.9322034 C3.24013559,11.9322034 3.11864407,11.8109831 3.11864407,11.6610169 C3.11864407,11.5110508 3.24013559,11.3898305 3.38983051,11.3898305 Z M3.38983051,12.7457627 L9.89830508,12.7457627 C10.048,12.7457627 10.1694915,12.8669831 10.1694915,13.0169492 C10.1694915,13.1669153 10.048,13.2881356 9.89830508,13.2881356 L3.38983051,13.2881356 C3.24013559,13.2881356 3.11864407,13.1669153 3.11864407,13.0169492 C3.11864407,12.8669831 3.24013559,12.7457627 3.38983051,12.7457627 Z M3.38983051,14.1016949 L9.89830508,14.1016949 C10.048,14.1016949 10.1694915,14.2229153 10.1694915,14.3728814 C10.1694915,14.5228475 10.048,14.6440678 9.89830508,14.6440678 L3.38983051,14.6440678 C3.24013559,14.6440678 3.11864407,14.5228475 3.11864407,14.3728814 C3.11864407,14.2229153 3.24013559,14.1016949 3.38983051,14.1016949 Z" id="Shape"></path>
            </g>
        </g>
    </g>
</svg>