<?xml version="1.0" encoding="UTF-8"?>
<svg width="16px" height="16px" viewBox="0 0 16 16" version="1.1" xmlns="http://www.w3.org/2000/svg" xmlns:xlink="http://www.w3.org/1999/xlink">
    <!-- Generator: sketchtool 53.1 (72631) - https://sketchapp.com -->
    <title>BEB93CED-C8A0-4357-A1F0-0AD475BC29D5</title>
    <desc>Created with sketchtool.</desc>
    <g id="Agenda-v4-Easy" stroke="none" stroke-width="1" fill="none" fill-rule="evenodd">
        <g id="Listagem" transform="translate(-1352.000000, -133.000000)" fill="#9198AF">
            <g id="Linha" transform="translate(16.000000, 121.000000)">
                <g id="gray/ic_edit" transform="translate(1336.000000, 12.000000)">
                    <g id="edit">
                        <path d="M0.149428571,14.838 L0.00742857143,15.4337143 C0.00285714286,15.4528571 0.00171428571,15.4722857 0.00114285714,15.4914286 C0.00114285714,15.4954286 0,15.4988571 0,15.5025714 C0.000285714286,15.5351429 0.00742857143,15.5668571 0.0185714286,15.5974286 C0.0211428571,15.6045714 0.024,15.6108571 0.0271428571,15.6177143 C0.0411428571,15.6482857 0.0585714286,15.6777143 0.0831428571,15.7022857 C0.110285714,15.7294286 0.142285714,15.7502857 0.176857143,15.7645714 C0.211428571,15.7788571 0.248285714,15.786 0.285142857,15.786 C0.307142857,15.786 0.329428571,15.7834286 0.351142857,15.7782857 L0.947142857,15.6362857 L0.149428571,14.838 Z" id="Path" fill-rule="nonzero"></path>
                        <path d="M15.0337143,0.751714286 C14.0308571,-0.250571429 12.3997143,-0.250571429 11.3968571,0.751714286 L1.09342857,11.0551429 C1.08857143,11.06 1.08571429,11.066 1.08142857,11.0711429 C1.07542857,11.078 1.07028571,11.0854286 1.06485714,11.0928571 C1.04971429,11.114 1.038,11.1365714 1.02914286,11.1611429 C1.02657143,11.1685714 1.02285714,11.1751429 1.02085714,11.1825714 C1.02,11.1854286 1.01828571,11.1882857 1.01742857,11.1911429 L0.304571429,14.1854286 L1.6,15.4805714 L4.59428571,14.7677143 C4.602,14.766 4.60885714,14.7617143 4.61628571,14.7591429 C4.626,14.756 4.63514286,14.7522857 4.64457143,14.748 C4.66514286,14.7385714 4.68428571,14.7268571 4.702,14.7128571 C4.70885714,14.7074286 4.716,14.7034286 4.72257143,14.6974286 C4.72485714,14.6951429 4.72771429,14.694 4.73,14.6917143 L15.0337143,4.388 C16.0362857,3.38571429 16.0362857,1.75428571 15.0337143,0.751714286 Z M4.902,13.712 L5.00314286,12.8025714 L11.3968571,6.40857143 C11.5085714,6.29685714 11.5085714,6.11628571 11.3968571,6.00457143 C11.2851429,5.89285714 11.1045714,5.89285714 10.9928571,6.00457143 L4.59914286,12.3985714 L3.23542857,12.55 L3.38685714,11.1862857 L9.78114286,4.79257143 C9.89285714,4.68085714 9.89285714,4.50028571 9.78114286,4.38857143 C9.66942857,4.27685714 9.48885714,4.27685714 9.37714286,4.38857143 L2.98285714,10.7822857 L2.07342857,10.8834286 L9.98285714,2.974 L12.8114286,5.80257143 L4.902,13.712 Z M13.2154286,5.39857143 L10.3868571,2.57 L10.7908571,2.166 L13.6194286,4.99457143 L13.2154286,5.39857143 Z M14.0234286,4.59057143 L11.1948571,1.762 L11.5991429,1.35771429 L14.4277143,4.18628571 L14.0234286,4.59057143 Z" id="Shape" fill-rule="nonzero"></path>
                    </g>
                </g>
            </g>
        </g>
    </g>
</svg>