<?xml version="1.0" encoding="UTF-8"?>
<svg width="147px" height="32px" viewBox="0 0 147 32" version="1.1" xmlns="http://www.w3.org/2000/svg" xmlns:xlink="http://www.w3.org/1999/xlink">
    <!-- Generator: sketchtool 53.1 (72631) - https://sketchapp.com -->
    <title>945769E8-FD63-4304-9B6F-7CC770EE2FDB</title>
    <desc>Created with sketchtool.</desc>
    <g id="Agenda-v4-Easy" stroke="none" stroke-width="1" fill="none" fill-rule="evenodd">
        <g id="Contato-criado-com-sucesso" transform="translate(-16.000000, -16.000000)" fill="#FA7268">
            <g id="header">
                <g id="light/ic_logo-" transform="translate(16.000000, 16.000000)">
                    <g id="ic_logo">
                        <g id="logo" fill-rule="nonzero">
                            <path d="M20.6277299,1.48067821e-13 L26.2937655,-1.77635684e-14 C26.8162952,-1.77635684e-14 27.2397882,0.41967775 27.2397882,0.9375 L27.2397882,26.375 C27.2397882,29.1586914 25.1994341,31.4697266 22.5197754,31.920166 C21.7981844,31.9733887 21.1675026,32 20.6277299,32 L4.80771708,32 C4.2854337,32 3.86169435,31.5803222 3.86169435,31.0625 L3.86169435,27.5292969 L3.22312901,27.5292969 C1.44588732,27.5292969 2.84217094e-14,26.0964356 2.84217094e-14,24.3352051 C2.84217094e-14,22.5739746 1.44588732,21.1411132 3.22312901,21.1411132 L3.86169435,21.1411132 L3.86169435,23.0161132 L3.22312901,23.0161132 C2.4892223,23.0161132 1.89204545,23.6079101 1.89204545,24.3352051 C1.89204545,25.0625 2.4892223,25.6542969 3.22312901,25.6542969 L3.86169435,25.6542969 L3.86169435,23.0161132 L7.76453079,23.0161132 C8.28706058,23.0161132 8.71055352,22.5964356 8.71055352,22.0786132 C8.71055352,21.5610351 8.28706058,21.1411132 7.76453079,21.1411132 L3.86169435,21.1411132 L3.86169435,19.1940918 L3.22312901,19.1940918 C1.44588732,19.1940918 2.84217094e-14,17.7612305 2.84217094e-14,16 C2.84217094e-14,14.2387695 1.44588732,12.8059082 3.22312901,12.8059082 L3.86169435,12.8059082 L3.86169435,14.6809082 L3.22312901,14.6809082 C2.4892223,14.6809082 1.89204545,15.2727051 1.89204545,16 C1.89204545,16.7272949 2.4892223,17.3190918 3.22312901,17.3190918 L3.86169435,17.3190918 L3.86169435,14.6809082 L7.76453079,14.6809082 C8.28706058,14.6809082 8.71055352,14.2612305 8.71055352,13.7434082 C8.71055352,13.2255859 8.28706058,12.8059082 7.76453079,12.8059082 L3.86169435,12.8059082 L3.86169435,10.8586426 L3.22312901,10.8586426 C1.44588732,10.8586426 2.84217094e-14,9.42602537 2.84217094e-14,7.66479494 C2.84217094e-14,5.90356444 1.44588732,4.47070312 3.22312901,4.47070312 L3.86169435,4.47070312 L3.86169435,6.34570312 L3.22312901,6.34570312 C2.4892223,6.34570312 1.89204545,6.93725587 1.89204545,7.66479494 C1.89204545,8.39208987 2.4892223,8.98364256 3.22312901,8.98364256 L3.8619407,8.98364256 L3.8619407,6.34570312 L7.76453079,6.34570312 C8.28706058,6.34570312 8.71055352,5.92578125 8.71055352,5.40820312 C8.71055352,4.89038087 8.28706058,4.47070312 7.76453079,4.47070312 L3.98167167,4.47070312 C4.51898306,1.91772462 6.80224833,-8.52651283e-14 9.53783072,-8.52651283e-14 L20.6277299,-9.23705556e-14 Z M16.150224,17.3333333 L13.4545455,17.3333333 L13.6348297,19.3119201 L13.6348297,23.7144897 C13.6348297,25.7302028 14.0769509,27.1705881 14.9612065,28.0356888 C15.8454622,28.9007895 17.1031468,29.3333333 18.734298,29.3333333 C22.1339605,29.3333333 23.8337662,27.4832448 23.8337662,23.7830121 L23.8337662,17.3333333 L21.309787,17.3333333 L21.309787,23.6802284 C21.309787,24.8907983 21.1137656,25.8029948 20.721717,26.4168451 C20.3296684,27.0306954 19.667202,27.337616 18.734298,27.337616 C17.8128406,27.337616 17.151805,27.0192751 16.7511714,26.3825839 C16.3505378,25.7458926 16.150224,24.8451165 16.150224,23.6802284 L16.150224,17.3333333 Z" id="Combined-Shape"></path>
                        </g>
                        <path d="M44.7982545,28.208 C38.5365091,28.208 34.7234909,24.6026667 34.7234909,17.6346667 L34.7234909,3.73333333 L37.3121455,3.73333333 L37.3121455,17.5306667 C37.3121455,23.2853333 40.0407273,25.92 44.7982545,25.92 C49.5907636,25.92 52.3193455,23.2853333 52.3193455,17.5306667 L52.3193455,3.73333333 L54.8380364,3.73333333 L54.8380364,17.6346667 C54.8380364,24.6026667 51.06,28.208 44.7982545,28.208 Z M71.5943273,9.62666667 C76.8416,9.62666667 80.7595636,13.3706667 80.7595636,18.8826667 C80.7595636,24.3946667 76.8416,28.1733333 71.5943273,28.1733333 C68.5509091,28.1733333 65.9972364,26.856 64.4930182,24.3946667 L64.4930182,28 L62.1142545,28 L62.1142545,2.27733333 L64.5979636,2.27733333 L64.5979636,13.232 C66.1371636,10.8746667 68.6558545,9.62666667 71.5943273,9.62666667 Z M71.4194182,25.9893333 C75.3024,25.9893333 78.2758545,23.1466667 78.2758545,18.8826667 C78.2758545,14.6186667 75.3024,11.776 71.4194182,11.776 C67.5014545,11.776 64.5629818,14.6186667 64.5629818,18.8826667 C64.5629818,23.1466667 67.5014545,25.9893333 71.4194182,25.9893333 Z M93.3530182,28.1733333 C87.9658182,28.1733333 83.9778909,24.2906667 83.9778909,18.8826667 C83.9778909,13.4746667 87.9658182,9.62666667 93.3530182,9.62666667 C98.7402182,9.62666667 102.693164,13.4746667 102.693164,18.8826667 C102.693164,24.2906667 98.7402182,28.1733333 93.3530182,28.1733333 Z M93.3530182,25.9893333 C97.2709818,25.9893333 100.174473,23.1466667 100.174473,18.8826667 C100.174473,14.6186667 97.2709818,11.776 93.3530182,11.776 C89.4350545,11.776 86.4965818,14.6186667 86.4965818,18.8826667 C86.4965818,23.1466667 89.4350545,25.9893333 93.3530182,25.9893333 Z M115.286618,28.1733333 C109.899418,28.1733333 105.911491,24.2906667 105.911491,18.8826667 C105.911491,13.4746667 109.899418,9.62666667 115.286618,9.62666667 C120.673818,9.62666667 124.626764,13.4746667 124.626764,18.8826667 C124.626764,24.2906667 120.673818,28.1733333 115.286618,28.1733333 Z M115.286618,25.9893333 C119.204582,25.9893333 122.108073,23.1466667 122.108073,18.8826667 C122.108073,14.6186667 119.204582,11.776 115.286618,11.776 C111.368655,11.776 108.430182,14.6186667 108.430182,18.8826667 C108.430182,23.1466667 111.368655,25.9893333 115.286618,25.9893333 Z M143.936727,28 L136.520582,18.848 L132.182836,22.8 L132.182836,28 L129.699127,28 L129.699127,2.27733333 L132.182836,2.27733333 L132.182836,19.7146667 L143.167127,9.76533333 L146.245527,9.76533333 L138.374618,17.2186667 L146.980145,28 L143.936727,28 Z" id="Ubook" fill-rule="nonzero"></path>
                    </g>
                </g>
            </g>
        </g>
    </g>
</svg>